<mxfile host="65bd71144e">
    <diagram id="o_uqdvn1tJFL3TNbFuQG" name="Page-1">
        <mxGraphModel dx="883" dy="647" grid="0" gridSize="10" guides="1" tooltips="1" connect="1" arrows="1" fold="1" page="1" pageScale="1" pageWidth="850" pageHeight="1100" math="0" shadow="0">
            <root>
                <mxCell id="0"/>
                <mxCell id="1" parent="0"/>
                <mxCell id="2" value="Student&lt;br&gt;" style="shape=umlActor;verticalLabelPosition=bottom;verticalAlign=top;html=1;labelPadding=10;" parent="1" vertex="1">
                    <mxGeometry x="330" y="420" width="70" height="130" as="geometry"/>
                </mxCell>
                <mxCell id="7" value="Show Classes&#10; schedule" style="ellipse;fontSize=18;" parent="1" vertex="1">
                    <mxGeometry x="110" y="200" width="140" height="90" as="geometry"/>
                </mxCell>
                <mxCell id="8" value="Upload tasks" style="ellipse;fontSize=18;" parent="1" vertex="1">
                    <mxGeometry x="490" y="200" width="140" height="90" as="geometry"/>
                </mxCell>
                <mxCell id="9" value="Pay fees" style="ellipse;fontSize=18;" parent="1" vertex="1">
                    <mxGeometry x="20" y="420" width="140" height="90" as="geometry"/>
                </mxCell>
                <mxCell id="10" value="Register in&#10;school&#10; activites" style="ellipse;fontSize=18;" parent="1" vertex="1">
                    <mxGeometry x="600" y="420" width="140" height="90" as="geometry"/>
                </mxCell>
                <mxCell id="11" value="Solve Exames" style="ellipse;fontSize=18;" parent="1" vertex="1">
                    <mxGeometry x="490" y="640" width="140" height="90" as="geometry"/>
                </mxCell>
                <mxCell id="12" value="Send &#10;Complaiment" style="ellipse;fontSize=18;" parent="1" vertex="1">
                    <mxGeometry x="110" y="640" width="140" height="90" as="geometry"/>
                </mxCell>
                <mxCell id="13" value="Answering&#10;servay" style="ellipse;fontSize=18;" parent="1" vertex="1">
                    <mxGeometry x="295" y="790" width="140" height="90" as="geometry"/>
                </mxCell>
                <mxCell id="14" value="" style="endArrow=none;startArrow=none;endFill=0;startFill=0;endSize=8;html=1;verticalAlign=bottom;labelBackgroundColor=none;strokeWidth=3;fontSize=18;exitX=0;exitY=0.3333333333333333;exitDx=0;exitDy=0;exitPerimeter=0;entryX=1;entryY=0.5;entryDx=0;entryDy=0;" parent="1" source="2" target="7" edge="1">
                    <mxGeometry width="160" relative="1" as="geometry">
                        <mxPoint x="340" y="490" as="sourcePoint"/>
                        <mxPoint x="500" y="490" as="targetPoint"/>
                    </mxGeometry>
                </mxCell>
                <mxCell id="15" value="" style="endArrow=none;startArrow=none;endFill=0;startFill=0;endSize=8;html=1;verticalAlign=bottom;labelBackgroundColor=none;strokeWidth=3;fontSize=18;entryX=0;entryY=0.5;entryDx=0;entryDy=0;exitX=1;exitY=0.3333333333333333;exitDx=0;exitDy=0;exitPerimeter=0;" parent="1" source="2" target="8" edge="1">
                    <mxGeometry width="160" relative="1" as="geometry">
                        <mxPoint x="160" y="490" as="sourcePoint"/>
                        <mxPoint x="499.99999999999955" y="135" as="targetPoint"/>
                    </mxGeometry>
                </mxCell>
                <mxCell id="16" value="" style="endArrow=none;startArrow=none;endFill=0;startFill=0;endSize=8;html=1;verticalAlign=bottom;labelBackgroundColor=none;strokeWidth=3;fontSize=18;exitX=0;exitY=0.3333333333333333;exitDx=0;exitDy=0;exitPerimeter=0;entryX=1;entryY=0.5;entryDx=0;entryDy=0;" parent="1" source="2" target="9" edge="1">
                    <mxGeometry width="160" relative="1" as="geometry">
                        <mxPoint x="150" y="483.3333333333335" as="sourcePoint"/>
                        <mxPoint x="250" y="470" as="targetPoint"/>
                    </mxGeometry>
                </mxCell>
                <mxCell id="17" value="" style="endArrow=none;startArrow=none;endFill=0;startFill=0;endSize=8;html=1;verticalAlign=bottom;labelBackgroundColor=none;strokeWidth=3;fontSize=18;exitX=1;exitY=0.3333333333333333;exitDx=0;exitDy=0;exitPerimeter=0;entryX=0;entryY=0.5;entryDx=0;entryDy=0;" parent="1" source="2" target="10" edge="1">
                    <mxGeometry width="160" relative="1" as="geometry">
                        <mxPoint x="160" y="493.3333333333335" as="sourcePoint"/>
                        <mxPoint x="519.9999999999995" y="155" as="targetPoint"/>
                    </mxGeometry>
                </mxCell>
                <mxCell id="18" value="" style="endArrow=none;startArrow=none;endFill=0;startFill=0;endSize=8;html=1;verticalAlign=bottom;labelBackgroundColor=none;strokeWidth=3;fontSize=18;exitX=1;exitY=0.3333333333333333;exitDx=0;exitDy=0;exitPerimeter=0;entryX=0;entryY=0.5;entryDx=0;entryDy=0;" parent="1" source="2" target="11" edge="1">
                    <mxGeometry width="160" relative="1" as="geometry">
                        <mxPoint x="170" y="503.3333333333335" as="sourcePoint"/>
                        <mxPoint x="529.9999999999995" y="165" as="targetPoint"/>
                    </mxGeometry>
                </mxCell>
                <mxCell id="19" value="" style="endArrow=none;startArrow=none;endFill=0;startFill=0;endSize=8;html=1;verticalAlign=bottom;labelBackgroundColor=none;strokeWidth=3;fontSize=18;entryX=1;entryY=0.5;entryDx=0;entryDy=0;" parent="1" target="12" edge="1">
                    <mxGeometry width="160" relative="1" as="geometry">
                        <mxPoint x="330" y="463" as="sourcePoint"/>
                        <mxPoint x="539.9999999999995" y="175" as="targetPoint"/>
                    </mxGeometry>
                </mxCell>
                <mxCell id="20" value="" style="endArrow=none;startArrow=none;endFill=0;startFill=0;endSize=8;html=1;verticalAlign=bottom;labelBackgroundColor=none;strokeWidth=3;fontSize=18;entryX=0.5;entryY=0;entryDx=0;entryDy=0;exitX=0.5;exitY=0.5;exitDx=0;exitDy=0;exitPerimeter=0;" parent="1" source="2" target="13" edge="1">
                    <mxGeometry width="160" relative="1" as="geometry">
                        <mxPoint x="190" y="523.3333333333335" as="sourcePoint"/>
                        <mxPoint x="549.9999999999995" y="185" as="targetPoint"/>
                    </mxGeometry>
                </mxCell>
            </root>
        </mxGraphModel>
    </diagram>
</mxfile>